<?xml version="1.0" encoding="UTF-8"?>
<svg version="1.1" xmlns="http://www.w3.org/2000/svg" width="512" height="512">
<path d="M0 0 C1.41732422 0.33064453 1.41732422 0.33064453 2.86328125 0.66796875 C52.39444856 12.56300131 97.0028612 42.99308654 123.9296875 86.65625 C142.98415654 118.4997649 153.27780642 152.51697623 153.0625 189.75585938 C153.05733748 191.3272942 153.05275043 192.89873101 153.0486908 194.47016907 C153.03967673 197.8361863 153.0283879 201.20218573 153.01583862 204.56819153 C152.99778207 209.89813726 152.99592536 215.22801184 152.99829102 220.5579834 C152.99866017 221.46030591 152.99902933 222.36262841 152.99940968 223.29229403 C153.00117258 227.00854573 153.00338186 230.72479714 153.00555611 234.44104862 C153.01081147 244.9636591 153.00100956 255.48580567 152.94873047 266.00830078 C152.90720252 274.38956132 152.89754148 282.7701843 152.92484093 291.15151262 C152.93805188 295.57876827 152.9353534 300.00470023 152.89379883 304.43180847 C152.85503905 308.59565464 152.85866327 312.75736785 152.89392281 316.92122459 C152.89943781 318.44253627 152.88978044 319.9639964 152.86323357 321.48508644 C152.73802385 329.14794426 153.03075337 334.7824057 158.3737793 340.74450684 C159.90095706 342.17902932 161.44185231 343.59917794 163 345 C165.06011957 347.42673287 166.97402039 349.94726558 168.875 352.5 C169.37692871 353.17377686 169.87885742 353.84755371 170.39599609 354.54174805 C176.13123854 362.37307864 181.18211115 370.57938509 186 379 C186.43054688 379.75120117 186.86109375 380.50240234 187.3046875 381.27636719 C209.9900172 421.37096885 217 463.34265242 217 509 C48.04 509 -120.92 509 -295 509 C-295 451.05933167 -281.8447675 398.52553706 -246.3125 352.13671875 C-245.85389587 351.53638856 -245.39529175 350.93605837 -244.92279053 350.31753635 C-243 348 -243 348 -240.3157196 345.31146908 C-233.65450149 338.50051244 -230.60964712 333.23578304 -230.60124207 323.40965271 C-230.63549702 321.9710755 -230.67079425 320.53252279 -230.70703125 319.09399414 C-230.70517785 317.54157233 -230.69842571 315.98914998 -230.68721008 314.43676758 C-230.67026399 310.25520116 -230.71998272 306.07683417 -230.78153229 301.89578938 C-230.83382743 297.48721604 -230.82059261 293.07883719 -230.81396484 288.67002869 C-230.81063734 280.31317398 -230.86047953 271.95759199 -230.93203354 263.60107559 C-231.05765079 248.68619448 -231.08410123 233.7708806 -231.10392475 218.85553831 C-231.11283251 213.63967486 -231.14224614 208.42444922 -231.18881589 203.20879179 C-231.37072152 181.92424222 -231.02090704 161.0609897 -225.3125 140.375 C-225.05758789 139.43172852 -224.80267578 138.48845703 -224.54003906 137.51660156 C-210.36951662 86.98015056 -175.67351103 45.06710602 -130.31518555 19.32421875 C-113.93527844 10.39215998 -96.25014189 3.83920668 -78 0 C-77.29359375 -0.16081055 -76.5871875 -0.32162109 -75.859375 -0.48730469 C-52.34296749 -5.69052442 -23.42291702 -5.60194966 0 0 Z " fill="#323C3C" transform="translate(295,3)"/>
<path d="M0 0 C2.72217105 2.72217105 2.70019529 5.53112739 3.25 9.1875 C6.6792773 29.27878973 17.28791972 47.69934732 33.90112305 59.78613281 C39.65228649 63.77180317 45.59840922 67.1846407 52 70 C53.19625 70.53625 54.3925 71.0725 55.625 71.625 C69.16947247 76.36072448 83.33385747 76.51431673 97.5 76.6875 C99.40236576 76.72076949 101.30471045 76.75526753 103.20703125 76.79101562 C107.80456843 76.87479454 112.40206699 76.94211005 117 77 C117.07004454 85.60700698 117.12308386 94.21389143 117.15543652 102.82111454 C117.17097769 106.81940465 117.19199969 110.81749731 117.22631836 114.81567383 C117.25933046 118.68662342 117.27693938 122.5573852 117.28463173 126.42846489 C117.29010129 127.89258207 117.30077737 129.356691 117.31719017 130.82072639 C117.46661239 144.72429984 115.48945668 157.50758887 110.375 170.5 C109.85776367 171.83091675 109.85776367 171.83091675 109.33007812 173.1887207 C104.02392004 186.3862409 96.48743766 198.4705657 86.41983509 208.59463692 C83.24463974 212.43980066 83.29654279 215.89718341 83.36076355 220.73190308 C83.35240787 221.59865917 83.3440522 222.46541527 83.33544332 223.3584367 C83.3135361 226.25613374 83.32711345 229.15256066 83.34057617 232.05029297 C83.33212248 234.12997906 83.32147816 236.20965723 83.30880737 238.2893219 C83.28064073 243.9314589 83.28313636 249.57321597 83.29110122 255.21540213 C83.29422424 261.11315118 83.26919785 267.01077881 83.24714661 272.90847778 C83.20967825 284.07495417 83.19755695 295.24130876 83.1945222 306.4078418 C83.18895792 321.49831829 83.14427963 336.58867555 83.10178089 351.67908478 C83.03585985 375.45275277 83.02223366 399.22615808 83 423 C28.55 423 -25.9 423 -82 423 C-81.96777344 407.82386719 -81.93554688 392.64773438 -81.90234375 377.01171875 C-81.90196246 367.40035371 -81.90385284 357.78907817 -81.91601562 348.17773438 C-81.93490025 332.92034162 -81.94448097 317.66334733 -81.89379883 302.40600586 C-81.85692888 291.29382835 -81.851688 280.18215907 -81.88417059 269.06995994 C-81.90026721 263.18781867 -81.90069994 257.30663049 -81.86323357 251.42456627 C-81.82843575 245.88290996 -81.83607284 240.34289935 -81.87562943 234.80129051 C-81.88274649 232.77247038 -81.87463488 230.74352787 -81.84977531 228.71484756 C-81.53719833 215.69775403 -81.53719833 215.69775403 -87.34693909 204.49861145 C-88.87657747 202.97726926 -90.42638165 201.47580518 -92 200 C-107.94207516 179.97807181 -115.37790932 155.19728275 -115.1953125 129.9296875 C-115.19157458 128.39698472 -115.1887313 126.86427953 -115.18673706 125.33157349 C-115.17916183 121.33017179 -115.15956714 117.32891916 -115.1373291 113.32757568 C-115.11673775 109.23142512 -115.10770714 105.13525008 -115.09765625 101.0390625 C-115.07631441 93.02597385 -115.04225389 85.01300556 -115 77 C-113.30194214 76.99383667 -113.30194214 76.99383667 -111.56958008 76.98754883 C-78.19291835 76.80516757 -47.900355 75.80314919 -22.25 51.625 C-9.17861092 37.77555205 -0.87714235 19.03398904 0 0 Z " fill="#EFCFA3" transform="translate(255,89)"/>
<path d="M0 0 C0.33 30.03 0.66 60.06 1 91 C0.67 91 0.34 91 0 91 C-0.14695313 91.98097656 -0.29390625 92.96195312 -0.4453125 93.97265625 C-4.1092245 116.67359707 -14.59406576 135.41970691 -32.75 149.8125 C-39.46112349 154.56442227 -46.32417871 158.14417193 -54 161 C-55.01876221 161.38744385 -55.01876221 161.38744385 -56.05810547 161.78271484 C-75.01059705 168.56172458 -96.19889306 166.45800012 -116 166 C-115.9616466 174.72041948 -115.90186382 183.44037111 -115.81609726 192.1604538 C-115.77689891 196.21131303 -115.74457723 200.26196387 -115.72900391 204.31298828 C-115.71365214 208.23607163 -115.67888946 212.15858092 -115.63169098 216.08140564 C-115.61706502 217.56415259 -115.60897004 219.04698158 -115.60811615 220.52980042 C-115.59577384 231.23444476 -114.00909646 240.73058494 -111 251 C-110.75576797 251.85021729 -110.51153595 252.70043457 -110.25990295 253.57641602 C-105.29411983 270.02864129 -97.0794927 284.8843277 -84.90237808 297.10515118 C-82.38529902 300.93539052 -82.45528071 304.21938699 -82.51898193 308.64961243 C-82.51556423 309.51959765 -82.51214653 310.38958288 -82.50862527 311.28593129 C-82.50203776 314.20047776 -82.52403688 317.11410286 -82.54589844 320.02856445 C-82.54702673 322.11794513 -82.54639342 324.2073274 -82.54412842 326.29670715 C-82.54297962 331.96992254 -82.56651599 337.64280041 -82.59442425 343.31593728 C-82.61941018 349.24431417 -82.62177769 355.17269858 -82.62652588 361.10112 C-82.63896388 372.32788983 -82.67179678 383.55450407 -82.71192384 394.78120536 C-82.76497059 409.95150061 -82.78658034 425.12183835 -82.80993271 440.29220295 C-82.84755748 464.19491854 -82.927243 488.09730576 -83 512 C-140.09 512 -197.18 512 -256 512 C-256 454.05933167 -242.8447675 401.52553706 -207.3125 355.13671875 C-206.85389587 354.53638856 -206.39529175 353.93605837 -205.92279053 353.31753635 C-204 351 -204 351 -201.3157196 348.31146908 C-194.65450149 341.50051244 -191.60964712 336.23578304 -191.60124207 326.40965271 C-191.63549702 324.9710755 -191.67079425 323.53252279 -191.70703125 322.09399414 C-191.70517785 320.54157233 -191.69842571 318.98914998 -191.68721008 317.43676758 C-191.67026399 313.25520116 -191.71998272 309.07683417 -191.78153229 304.89578938 C-191.83382743 300.48721604 -191.82059261 296.07883719 -191.81396484 291.67002869 C-191.81063734 283.31317398 -191.86047953 274.95759199 -191.93203354 266.60107559 C-192.05765079 251.68619448 -192.08410123 236.7708806 -192.10392475 221.85553831 C-192.11283251 216.63967486 -192.14224614 211.42444922 -192.18881589 206.20879179 C-192.37072152 184.92424222 -192.02090704 164.0609897 -186.3125 143.375 C-186.05758789 142.43172852 -185.80267578 141.48845703 -185.54003906 140.51660156 C-171.36951662 89.98015056 -136.67351103 48.06710602 -91.31518555 22.32421875 C-71.82696986 11.6971812 -50.85430846 4.78031151 -29 1.1875 C-28.2783667 1.06318604 -27.5567334 0.93887207 -26.81323242 0.81079102 C-17.79314246 -0.51301652 -9.3293697 0 0 0 Z " fill="#495959" transform="translate(256,0)"/>
<path d="M0 0 C0.33 0.66 0.66 1.32 1 2 C2.6614964 2.35821586 4.32941517 2.68689427 6 3 C26.67108528 11.27040467 45.79641574 22.94044272 63 37 C63.52223145 37.42071777 64.04446289 37.84143555 64.58251953 38.27490234 C71.86827876 44.15878863 78.62529041 50.42811143 85.15600586 57.14160156 C87.71696323 59.76725441 90.23140407 62.18858405 93.08203125 64.51171875 C96.28156519 67.24010311 98.71434486 70.10772398 101.25 73.4375 C101.72252197 74.05165771 102.19504395 74.66581543 102.68188477 75.29858398 C104.1303213 77.19235855 105.5658235 79.09541361 107 81 C107.4232959 81.55333008 107.8465918 82.10666016 108.28271484 82.67675781 C142.74850934 127.89171746 155 180.89717451 155 237 C97.58 237 40.16 237 -19 237 C-19.44333338 184.61053363 -19.44333338 184.61053363 -19.53710938 162.63085938 C-19.60234152 147.46336891 -19.67896214 132.29655139 -19.82983398 117.12963867 C-19.93966916 106.0827885 -20.01048643 95.03648502 -20.03497344 83.98910397 C-20.04928198 78.1423241 -20.08277004 72.29710782 -20.16303062 66.45083046 C-20.2380637 60.94034343 -20.26065534 55.43205382 -20.24418449 49.92110443 C-20.24719458 47.90590887 -20.26886216 45.89063486 -20.31126022 43.8758831 C-20.51119778 33.87898549 -20.53356685 26.17909691 -13.59846497 18.45426941 C-11.77302497 16.58901478 -9.89058923 14.80062037 -8 13 C-6.225079 10.62965976 -4.80679994 8.25318481 -3.3125 5.6875 C-2.66925781 4.59824219 -2.02601563 3.50898438 -1.36328125 2.38671875 C-0.68845703 1.20529297 -0.68845703 1.20529297 0 0 Z " fill="#57B253" transform="translate(357,275)"/>
<path d="M0 0 C3.04360955 3.62891908 5.60987272 7.4262425 8.14119816 11.41659069 C9.92000826 14.05573858 9.92000826 14.05573858 12.25631618 16.15424824 C18.93505037 22.7468698 19.98234259 27.9326918 20.12373054 37.04061186 C20.11962689 39.93132183 20.07106374 42.81945141 20.02172852 45.7097168 C20.01918673 47.79998158 20.02062094 49.89025439 20.02571106 51.98051453 C20.02828387 57.62915545 19.9755282 63.27606168 19.91254544 68.92430091 C19.8561233 74.83655385 19.85098428 80.74885055 19.84031677 86.66133118 C19.81239052 97.84570913 19.73859888 109.02929137 19.64817137 120.2133196 C19.52857563 135.33445671 19.48014617 150.4558128 19.42765141 165.57730389 C19.34313099 189.38546479 19.16380296 213.19194687 19 237 C-38.09 237 -95.18 237 -154 237 C-154 171.1808962 -135.80026522 112.05036814 -91 63 C-89.10103898 61.1990733 -87.15835935 59.51624855 -85.13671875 57.85546875 C-82.93386281 55.94256825 -80.91037526 53.8981113 -78.88183594 51.80297852 C-72.09288418 44.80613436 -64.83042649 38.79311194 -57 33 C-56.34370605 32.50999512 -55.68741211 32.01999023 -55.01123047 31.51513672 C-41.3296504 21.35923226 -26.90634461 13.24256224 -11.5625 5.875 C-10.75119629 5.48417236 -9.93989258 5.09334473 -9.10400391 4.69067383 C-7.97164307 4.1592981 -7.97164307 4.1592981 -6.81640625 3.6171875 C-6.15068604 3.30378418 -5.48496582 2.99038086 -4.79907227 2.66748047 C-3 2 -3 2 0 2 C0 1.34 0 0.68 0 0 Z " fill="#6EBD6A" transform="translate(154,275)"/>
<path d="M0 0 C4.50131135 5.62663919 4.50131135 5.62663919 6.3046875 8.43359375 C6.71565674 9.07063232 7.12662598 9.7076709 7.55004883 10.36401367 C8.20589966 11.3903894 8.20589966 11.3903894 8.875 12.4375 C9.34768311 13.17266846 9.82036621 13.90783691 10.30737305 14.6652832 C11.87551847 17.10769317 13.4385218 19.55332259 15 22 C15.81766846 23.28100586 15.81766846 23.28100586 16.65185547 24.58789062 C20.17469343 30.11111358 23.68934874 35.63951233 27.20166016 41.16943359 C30.1317377 45.78134224 33.06604578 50.39055701 36 55 C37.16668774 56.83331992 38.33335439 58.66665327 39.5 60.5 C40.0775 61.4075 40.655 62.315 41.25 63.25 C43 66 44.75 68.75 46.5 71.5 C47.07782227 72.4079834 47.65564453 73.3159668 48.25097656 74.25146484 C49.41447232 76.07986172 50.57788415 77.90831202 51.74121094 79.73681641 C54.7056971 84.39612505 57.67175729 89.05441932 60.640625 93.7109375 C61.2397168 94.65114746 61.83880859 95.59135742 62.45605469 96.56005859 C63.63822522 98.41504311 64.82114991 100.26954726 66.00488281 102.12353516 C68.71445025 106.3746998 71.40189556 110.63618139 74.03125 114.9375 C74.49370117 115.69111816 74.95615234 116.44473633 75.43261719 117.22119141 C76.28859239 118.62063789 77.13856082 120.02378256 77.98144531 121.43115234 C78.93454166 122.98787638 79.95989413 124.50001261 81 126 C81.66 126 82.32 126 83 126 C84.692714 123.44705429 86.26568169 120.89017906 87.8125 118.25 C91.85199192 111.49488891 95.99786924 104.83286379 100.3125 98.25 C106.70344211 88.47998281 112.97919279 78.6398866 119.23388672 68.78222656 C122.15179938 64.18552589 125.07620468 59.59296022 128 55 C129.16669827 53.16668678 130.33336492 51.33335344 131.5 49.5 C133.83333333 45.83333333 136.16666667 42.16666667 138.5 38.5 C139.07854736 37.59072754 139.65709473 36.68145508 140.25317383 35.74462891 C141.40879685 33.92890368 142.56487694 32.11346927 143.72143555 30.29833984 C146.81106639 25.44800796 149.89040913 20.59148001 152.95703125 15.7265625 C153.92479492 14.19515625 153.92479492 14.19515625 154.91210938 12.6328125 C156.15978722 10.65807059 157.40467211 8.68156072 158.64648438 6.703125 C159.20271484 5.82398438 159.75894531 4.94484375 160.33203125 4.0390625 C160.82421143 3.25740723 161.3163916 2.47575195 161.82348633 1.67041016 C162.4058606 0.84355713 162.4058606 0.84355713 163 0 C163.33 0 163.66 0 164 0 C164 69.3 164 138.6 164 210 C109.88 210 55.76 210 0 210 C0 140.7 0 71.4 0 0 Z " fill="#DCE9EB" transform="translate(174,302)"/>
<path d="M0 0 C2.72217105 2.72217105 2.70019529 5.53112739 3.25 9.1875 C6.6792773 29.27878973 17.28791972 47.69934732 33.90112305 59.78613281 C39.65228649 63.77180317 45.59840922 67.1846407 52 70 C53.19625 70.53625 54.3925 71.0725 55.625 71.625 C69.16947247 76.36072448 83.33385747 76.51431673 97.5 76.6875 C99.40236576 76.72076949 101.30471045 76.75526753 103.20703125 76.79101562 C107.80456843 76.87479454 112.40206699 76.94211005 117 77 C117.07004454 85.60700698 117.12308386 94.21389143 117.15543652 102.82111454 C117.17097769 106.81940465 117.19199969 110.81749731 117.22631836 114.81567383 C117.25933046 118.68662342 117.27693938 122.5573852 117.28463173 126.42846489 C117.29010129 127.89258207 117.30077737 129.356691 117.31719017 130.82072639 C117.46661239 144.72429984 115.48945668 157.50758887 110.375 170.5 C110.03017578 171.38727783 109.68535156 172.27455566 109.33007812 173.1887207 C104.40004344 185.45074368 97.5588866 195.93775607 89 206 C83.31340937 212.70164129 78.53660908 219.73661739 73.953125 227.21484375 C70.46366095 232.90160244 66.85430017 238.51059287 63.25 244.125 C61.8618015 246.29025068 60.47378111 248.45561558 59.0859375 250.62109375 C58.40112305 251.68956543 57.71630859 252.75803711 57.01074219 253.85888672 C53.95683951 258.62958996 50.91470819 263.4077438 47.875 268.1875 C47.30555664 269.08291504 46.73611328 269.97833008 46.14941406 270.90087891 C45.00544815 272.69997806 43.86156756 274.49913147 42.71777344 276.29833984 C39.23241831 281.77999701 35.74417465 287.25981689 32.25610352 292.73974609 C29.30027925 297.38384451 26.34598162 302.02890168 23.39453125 306.67578125 C19.93541671 312.12084884 16.46958693 317.56160054 13 323 C12.17580566 324.29381592 12.17580566 324.29381592 11.33496094 325.61376953 C9.78968282 328.03668756 8.23948409 330.45637359 6.6875 332.875 C6.22512939 333.60114502 5.76275879 334.32729004 5.28637695 335.07543945 C4.21784858 336.73461576 3.11307424 338.37037286 2 340 C1.67 340 1.34 340 1 340 C0.67 227.8 0.34 115.6 0 0 Z " fill="#F0B986" transform="translate(255,89)"/>
<path d="M0 0 C4.50131135 5.62663919 4.50131135 5.62663919 6.3046875 8.43359375 C6.71565674 9.07063232 7.12662598 9.7076709 7.55004883 10.36401367 C8.20589966 11.3903894 8.20589966 11.3903894 8.875 12.4375 C9.34768311 13.17266846 9.82036621 13.90783691 10.30737305 14.6652832 C11.87551847 17.10769317 13.4385218 19.55332259 15 22 C15.81766846 23.28100586 15.81766846 23.28100586 16.65185547 24.58789062 C20.17469343 30.11111358 23.68934874 35.63951233 27.20166016 41.16943359 C30.1317377 45.78134224 33.06604578 50.39055701 36 55 C37.16668774 56.83331992 38.33335439 58.66665327 39.5 60.5 C40.0775 61.4075 40.655 62.315 41.25 63.25 C46.5 71.5 46.5 71.5 48.25073242 74.2512207 C49.41487339 76.08053867 50.57909836 77.90980318 51.7434082 79.73901367 C54.69941666 84.38334261 57.65386109 89.02865404 60.60546875 93.67578125 C61.20552734 94.62001953 61.80558594 95.56425781 62.42382812 96.53710938 C63.53897809 98.29195776 64.65362671 100.04712492 65.76757812 101.80273438 C66.29158203 102.62708984 66.81558594 103.45144531 67.35546875 104.30078125 C67.87281586 105.13556 68.39016296 105.97033875 68.92318726 106.83041382 C70.46035478 109.17640527 72.02149226 111.36129024 73.72439575 113.5786438 C81.98283569 124.69465326 83.53585194 133.19422445 83.07421875 146.81640625 C83.05798376 148.44718251 83.04680002 150.07801683 83.04064941 151.7088623 C82.98369081 157.66096646 82.8301196 163.61183215 82.6875 169.5625 C82.460625 182.906875 82.23375 196.25125 82 210 C54.94 210 27.88 210 0 210 C0 140.7 0 71.4 0 0 Z " fill="#F0F5F6" transform="translate(174,302)"/>
<path d="M0 0 C0.33 0.66 0.66 1.32 1 2 C2.6614964 2.35821586 4.32941517 2.68689427 6 3 C26.67108528 11.27040467 45.79641574 22.94044272 63 37 C63.52223145 37.42071777 64.04446289 37.84143555 64.58251953 38.27490234 C71.86827876 44.15878863 78.62529041 50.42811143 85.15600586 57.14160156 C87.75297213 59.80417298 90.35117609 62.35598824 93.2265625 64.71875 C96.38207366 67.31426904 98.62489422 69.68924649 101 73 C99.75360714 76.73917859 98.69286197 77.06227022 95.34765625 79.01171875 C94.35685059 79.59638916 93.36604492 80.18105957 92.34521484 80.78344727 C91.26191895 81.41178467 90.17862305 82.04012207 89.0625 82.6875 C87.35197477 83.69591458 85.64146976 84.70436539 83.93218994 85.71488953 C82.74600991 86.41610228 81.55927314 87.11637403 80.37200928 87.81575012 C74.15559222 91.48237204 68.01296088 95.26624779 61.875 99.0625 C53.76592704 104.06825712 45.64512396 109.05310866 37.5 114 C29.17309045 119.06000351 20.86185266 124.14491637 12.5625 129.25 C11.47001953 129.92160156 10.37753906 130.59320313 9.25195312 131.28515625 C4.44367181 134.24544602 -0.35717109 137.21546417 -5.12890625 140.234375 C-6.25437866 140.9454541 -6.25437866 140.9454541 -7.40258789 141.67089844 C-8.75729188 142.52935595 -10.10953313 143.39171791 -11.45874023 144.25878906 C-15.78100394 147 -15.78100394 147 -18 147 C-18 176.7 -18 206.4 -18 237 C-18.33 237 -18.66 237 -19 237 C-19.25726295 209.71379802 -19.45108527 182.42777849 -19.56993389 155.14060688 C-19.62659094 142.46987108 -19.70379751 129.79988997 -19.82983398 117.12963867 C-19.93966916 106.0827885 -20.01048643 95.03648502 -20.03497344 83.98910397 C-20.04928198 78.1423241 -20.08277004 72.29710782 -20.16303062 66.45083046 C-20.2380637 60.94034343 -20.26065534 55.43205382 -20.24418449 49.92110443 C-20.24719458 47.90590887 -20.26886216 45.89063486 -20.31126022 43.8758831 C-20.51119778 33.87898549 -20.53356685 26.17909691 -13.59846497 18.45426941 C-11.77302497 16.58901478 -9.89058923 14.80062037 -8 13 C-6.225079 10.62965976 -4.80679994 8.25318481 -3.3125 5.6875 C-2.66925781 4.59824219 -2.02601563 3.50898438 -1.36328125 2.38671875 C-0.68845703 1.20529297 -0.68845703 1.20529297 0 0 Z " fill="#6FBE6B" transform="translate(357,275)"/>
<path d="M0 0 C3.04914958 3.63552449 5.6266317 7.43190842 8.14064026 11.44413757 C9.88723538 14.05909319 9.88723538 14.05909319 12.26133728 15.90632629 C18.30008645 21.370419 19.55679318 26.04248486 19.95623112 33.9678297 C20.06158177 39.56557866 20.0221076 45.15326831 19.91254544 50.75068259 C19.85584443 54.1404129 19.85096293 57.530233 19.84031677 60.92036438 C19.81247006 67.3238769 19.73879315 73.72598767 19.64817137 80.12888604 C19.54717394 87.42505476 19.49799116 94.72129451 19.45291245 102.01798952 C19.35912715 117.01277074 19.20107842 132.00624443 19 147 C17.43136209 146.22821105 15.86418644 145.45344979 14.29760742 144.67749023 C13.4247258 144.24637436 12.55184418 143.81525848 11.6525116 143.37107849 C7.39192162 141.16878716 3.36398071 138.62375376 -0.6875 136.0625 C-2.54115423 134.90282633 -4.3953396 133.74400133 -6.25 132.5859375 C-7.19875 131.99264648 -8.1475 131.39935547 -9.125 130.78808594 C-13.79112676 127.88602136 -18.48922925 125.03712451 -23.1875 122.1875 C-32.45575486 116.55967248 -41.69351402 110.8837612 -50.92285156 105.19238281 C-56.76535591 101.5936506 -62.6168206 98.0108313 -68.484375 94.453125 C-69.10862869 94.07460892 -69.73288239 93.69609283 -70.37605286 93.30610657 C-73.38242541 91.48400267 -76.39002924 89.66396405 -79.39916992 87.84643555 C-86.3256851 83.65462138 -93.19049089 79.37943225 -100 75 C-96.62756852 68.02433456 -91.1323451 62.97597283 -85.27734375 58.03125 C-83.04339175 56.03870276 -80.95573876 53.94091311 -78.87304688 51.79199219 C-72.08290865 44.80266477 -64.82705898 38.79062059 -57 33 C-56.34370605 32.50999512 -55.68741211 32.01999023 -55.01123047 31.51513672 C-41.3296504 21.35923226 -26.90634461 13.24256224 -11.5625 5.875 C-10.75119629 5.48417236 -9.93989258 5.09334473 -9.10400391 4.69067383 C-8.34909668 4.33642334 -7.59418945 3.98217285 -6.81640625 3.6171875 C-6.15068604 3.30378418 -5.48496582 2.99038086 -4.79907227 2.66748047 C-3 2 -3 2 0 2 C0 1.34 0 0.68 0 0 Z " fill="#84C781" transform="translate(154,275)"/>
<path d="M0 0 C5.82210331 1.54752827 10.41195129 4.54983272 15.4375 7.75 C17.32494776 8.93580849 19.21298934 10.1206722 21.1015625 11.3046875 C22.07512695 11.91666992 23.04869141 12.52865234 24.05175781 13.15917969 C28.77775192 16.10999085 33.54597495 18.99030035 38.3125 21.875 C50.2807258 29.13465211 62.14725644 36.55366224 74 44 C70.23540253 48.55881635 66.33145549 52.73512068 61.9375 56.6875 C60.79026525 57.73296392 59.64313273 58.77854004 58.49609375 59.82421875 C57.91585449 60.35063965 57.33561523 60.87706055 56.73779297 61.41943359 C53.9771152 63.93033945 51.23936288 66.46589198 48.5 69 C47.41678535 70.00012855 46.33345177 71.00012833 45.25 72 C44.71375 72.495 44.1775 72.99 43.625 73.5 C20.33333333 95 -2.95833333 116.5 -26.25 138 C-26.7869751 138.49580566 -27.3239502 138.99161133 -27.87719727 139.50244141 C-28.95265669 140.49489938 -30.02865955 141.48676881 -31.10522461 142.47802734 C-33.93893651 145.08866986 -36.7604383 147.71110013 -39.56640625 150.3515625 C-40.15164062 150.89941406 -40.736875 151.44726562 -41.33984375 152.01171875 C-42.45925179 153.06005326 -43.5753383 154.11194983 -44.6875 155.16796875 C-47.32963338 157.6353045 -49.73292465 159.47935351 -53 161 C-54.6018017 102.31861075 -37.47833056 47.29941955 -1 1 C-0.67 0.67 -0.34 0.34 0 0 Z " fill="#58B354" transform="translate(53,350)"/>
<path d="M0 0 C2.86945266 2.40756893 4.97165785 5.28566843 7.12890625 8.31640625 C7.61157959 8.98704102 8.09425293 9.65767578 8.59155273 10.34863281 C13.46062048 17.20846216 17.82278151 24.29828337 21.94140625 31.62890625 C22.34214355 32.33466797 22.74288086 33.04042969 23.15576172 33.76757812 C38.51337747 61.04068881 47.56705193 90.70460834 51.94140625 121.62890625 C52.04670654 122.32363037 52.15200684 123.01835449 52.26049805 123.73413086 C53.25916414 131.18517767 53.05088066 138.69056869 53.00390625 146.19140625 C52.99887991 147.59570152 52.99431901 148.99999855 52.99023438 150.40429688 C52.97852218 153.81254528 52.96211997 157.22070265 52.94140625 160.62890625 C49.49738838 159.00805972 47.33469107 157.2035438 44.69140625 154.44140625 C41.29801195 150.90558847 37.73767611 147.67530431 34.03808594 144.46948242 C30.67906634 141.5207576 27.43897714 138.44921238 24.19140625 135.37890625 C18.45326288 129.97653721 12.68205216 124.61630711 6.86328125 119.30078125 C3.7349664 116.4401297 0.61772905 113.56780875 -2.49609375 110.69140625 C-3.03645264 110.19229736 -3.57681152 109.69318848 -4.13354492 109.17895508 C-5.22824267 108.16770013 -6.32288771 107.15638813 -7.41748047 106.14501953 C-10.13036961 103.63876521 -12.84454234 101.13390179 -15.55859375 98.62890625 C-16.64193332 97.62891301 -17.72526666 96.62891301 -18.80859375 95.62890625 C-19.34484375 95.13390625 -19.88109375 94.63890625 -20.43359375 94.12890625 C-38.30859375 77.62890625 -56.18359375 61.12890625 -74.05859375 44.62890625 C-71.5536098 41.84564954 -68.7565518 40.09934963 -65.5546875 38.1796875 C-63.87379028 37.16648437 -63.87379028 37.16648437 -62.15893555 36.1328125 C-61.56237152 35.77590332 -60.9658075 35.41899414 -60.35116577 35.05126953 C-57.18088886 33.15453782 -54.01893912 31.24399151 -50.85546875 29.3359375 C-50.20672287 28.94524078 -49.55797699 28.55454407 -48.88957214 28.15200806 C-42.31397436 24.18899904 -35.77941084 20.16116905 -29.24609375 16.12890625 C-27.11203332 14.8189222 -24.97792071 13.50902314 -22.84375 12.19921875 C-19.29024245 10.01503245 -15.75570969 7.8064723 -12.2421875 5.55859375 C-11.54262939 5.11837891 -10.84307129 4.67816406 -10.12231445 4.22460938 C-8.87947739 3.44206495 -7.6440961 2.6474751 -6.41870117 1.83789062 C-2.6896888 -0.48485851 -2.6896888 -0.48485851 0 0 Z " fill="#4A9F46" transform="translate(459.05859375,350.37109375)"/>
<path d="M0 0 C0.495 0.99 0.495 0.99 1 2 C-0.2340905 4.27565026 -1.52660384 6.39787414 -2.9375 8.5625 C-3.38061523 9.25649902 -3.82373047 9.95049805 -4.28027344 10.66552734 C-5.28536094 12.23745712 -6.29425156 13.80695919 -7.30615234 15.37451172 C-9.12499786 18.19374849 -10.93251799 21.02002339 -12.73828125 23.84765625 C-15.45988589 28.1078219 -18.18540235 32.36544383 -20.9140625 36.62109375 C-24.66239096 42.46936811 -28.39736399 48.32601916 -32.125 54.1875 C-32.97916504 55.53062256 -32.97916504 55.53062256 -33.85058594 56.90087891 C-34.99455185 58.69997806 -36.13843244 60.49913147 -37.28222656 62.29833984 C-40.76758169 67.77999701 -44.25582535 73.25981689 -47.74389648 78.73974609 C-50.69972075 83.38384451 -53.65401838 88.02890168 -56.60546875 92.67578125 C-60.06458329 98.12084884 -63.53041307 103.56160054 -67 109 C-67.54946289 109.86254395 -68.09892578 110.72508789 -68.66503906 111.61376953 C-70.21031718 114.03668756 -71.76051591 116.45637359 -73.3125 118.875 C-73.77487061 119.60114502 -74.23724121 120.32729004 -74.71362305 121.07543945 C-75.78215142 122.73461576 -76.88692576 124.37037286 -78 126 C-78.33 126 -78.66 126 -79 126 C-79 94.98 -79 63.96 -79 32 C-71.08 31.01 -63.16 30.02 -55 29 C-34.59910966 24.08063637 -14.7385073 15.33674929 0 0 Z " fill="#E2A66F" transform="translate(335,303)"/>
<path d="M0 0 C0.845625 0.78375 1.69125 1.5675 2.5625 2.375 C16.58222237 14.26797806 33.1777577 23.35121716 51 27.9375 C51.72082764 28.12481689 52.44165527 28.31213379 53.18432617 28.50512695 C62.05924531 30.56206184 70.83885587 31.03566904 80 32 C80 63.02 80 94.04 80 126 C77.36988953 123.36988953 75.67033395 121.11961615 73.69921875 118.01171875 C72.73894775 116.50411987 72.73894775 116.50411987 71.75927734 114.96606445 C71.07559082 113.88413818 70.3919043 112.80221191 69.6875 111.6875 C68.96862161 110.55600499 68.24937839 109.4247417 67.52978516 108.29370117 C66.05897543 105.98062921 64.59031152 103.6662176 63.12353516 101.35058594 C60.61691678 97.39555827 58.10138386 93.4462633 55.58520508 89.49731445 C53.29385133 85.90016711 51.00587153 82.30087891 48.71777344 78.70166016 C45.81326436 74.13353943 42.90650771 69.56684923 40 65 C38.8333228 63.16667337 37.66665613 61.33334004 36.5 59.5 C35.9225 58.5925 35.345 57.685 34.75 56.75 C33 54 31.25 51.25 29.5 48.5 C28.9217749 47.59137207 28.3435498 46.68274414 27.74780273 45.74658203 C26.58841811 43.92466877 25.42907523 42.10272893 24.26977539 40.28076172 C21.24204632 35.52247562 18.21345867 30.76473892 15.18359375 26.0078125 C14.55646484 25.02296875 13.92933594 24.038125 13.28320312 23.0234375 C12.09076571 21.15086912 10.8980752 19.27846187 9.70507812 17.40625 C8.63484959 15.72536912 7.5662365 14.04345819 6.49951172 12.36035156 C5.50224201 10.79056916 4.49867531 9.22476899 3.48876953 7.66308594 C3.02970215 6.94668945 2.57063477 6.23029297 2.09765625 5.4921875 C1.48869507 4.55028564 1.48869507 4.55028564 0.86743164 3.58935547 C0 2 0 2 0 0 Z " fill="#F1BA87" transform="translate(176,303)"/>
</svg>
